<svg id="livetype" xmlns="http://www.w3.org/2000/svg" viewBox="0 0 135 40"><defs><style>.cls-1{fill:#020101;}.cls-2{fill:#a6a6a6;}.cls-3{fill:#fff;}</style></defs><title>Download_on_the_App_Store_Badge_US-UK_blk_092917</title><path class="cls-1" d="M130,40H5a5,5,0,0,1-5-5V5A5,5,0,0,1,5,0H130a5,5,0,0,1,5,5V35A5,5,0,0,1,130,40Z"/><path class="cls-2" d="M130,.8A4.2,4.2,0,0,1,134.2,5V35a4.2,4.2,0,0,1-4.2,4.2H5A4.2,4.2,0,0,1,.8,35V5A4.2,4.2,0,0,1,5,.8H130m0-.8H5A5,5,0,0,0,0,5V35a5,5,0,0,0,5,5H130a5,5,0,0,0,5-5V5A5,5,0,0,0,130,0Z"/><path class="cls-3" d="M49.8,27.1H45.1l-1.2,3.4h-2l4.5-12.4h2.1L53,30.5H51Zm-4.2-1.5h3.7l-1.8-5.5h-.1Z"/><path class="cls-3" d="M62.7,26c0,2.8-1.5,4.6-3.8,4.6A3.2,3.2,0,0,1,56,29h0v4.5H54.1V21.4h1.8v1.5H56a3.3,3.3,0,0,1,2.9-1.6C61.2,21.3,62.7,23.2,62.7,26Zm-1.9,0c0-1.9-1-3.1-2.4-3.1S56,24.2,56,26s.9,3,2.4,3S60.8,27.8,60.8,26Z"/><path class="cls-3" d="M72.6,26c0,2.8-1.5,4.6-3.7,4.6A3.1,3.1,0,0,1,66,29h0v4.5H64.1V21.4h1.8v1.5h0a3.6,3.6,0,0,1,2.9-1.6C71.1,21.3,72.6,23.2,72.6,26Zm-1.9,0c0-1.9-.9-3.1-2.4-3.1S66,24.2,66,26s.9,3,2.3,3S70.7,27.8,70.7,26Z"/><path class="cls-3" d="M79.2,27c.2,1.3,1.4,2.1,3,2.1s2.7-.8,2.7-1.9-.7-1.6-2.3-2L81,24.8c-2.3-.5-3.4-1.6-3.4-3.3s1.9-3.6,4.6-3.6,4.4,1.4,4.4,3.6H84.8c-.1-1.3-1.2-2-2.7-2s-2.5.8-2.5,1.9.7,1.4,2.3,1.7l1.3.4c2.6.6,3.6,1.6,3.6,3.4s-1.8,3.8-4.7,3.8-4.7-1.4-4.8-3.7Z"/><path class="cls-3" d="M90.9,19.3v2.1h1.7v1.5H90.9v5c0,.8.3,1.1,1.1,1.1h.6v1.5H91.5c-1.8,0-2.5-.6-2.5-2.4V22.9H87.7V21.4H89V19.3Z"/><path class="cls-3" d="M93.6,26c0-2.9,1.7-4.7,4.3-4.7s4.3,1.8,4.3,4.7-1.7,4.6-4.3,4.6S93.6,28.8,93.6,26Zm6.7,0c0-2-.9-3.1-2.4-3.1S95.5,24,95.5,26s.9,3.1,2.4,3.1S100.3,27.9,100.3,26Z"/><path class="cls-3" d="M103.7,21.4h1.8V23h0a2.3,2.3,0,0,1,2.2-1.7h.6v1.8a1.3,1.3,0,0,0-.8-.2,1.9,1.9,0,0,0-1.9,2.1v5.4h-1.9Z"/><path class="cls-3" d="M116.9,27.8a3.7,3.7,0,0,1-3.9,2.8c-2.6,0-4.3-1.8-4.3-4.6s1.7-4.7,4.2-4.7,4.1,1.8,4.1,4.5v.6h-6.4a2.4,2.4,0,0,0,2.4,2.6,2,2,0,0,0,2.1-1.3Zm-6.3-2.7h4.5a2.1,2.1,0,0,0-2.2-2.3A2.3,2.3,0,0,0,110.6,25.1Z"/><g id="_Group_" data-name="&lt;Group&gt;"><g id="_Group_2" data-name="&lt;Group&gt;"><path id="_Path_" data-name="&lt;Path&gt;" class="cls-3" d="M28.7,19.3a5.5,5.5,0,0,1,2.8-4.9,5.9,5.9,0,0,0-4.8-2.6c-2-.2-3.9,1.2-5,1.2s-2.6-1.2-4.3-1.2a6.5,6.5,0,0,0-5.3,3.3c-2.3,4-.6,9.9,1.6,13.1,1.1,1.6,2.4,3.4,4.1,3.3s2.3-1.1,4.3-1.1,2.5,1.1,4.3,1.1,2.9-1.6,3.9-3.2a17.2,17.2,0,0,0,1.9-3.7A5.6,5.6,0,0,1,28.7,19.3Z"/><path id="_Path_2" data-name="&lt;Path&gt;" class="cls-3" d="M25.4,9.7a5.7,5.7,0,0,0,1.3-4.2,5.8,5.8,0,0,0-5.2,6A4.8,4.8,0,0,0,25.4,9.7Z"/></g></g><path class="cls-3" d="M46.3,11.9a1.9,1.9,0,0,1-.2.7l-.4.6-.6.4H43.2c-.2-.2-.5-.3-.7-.6l-.4-.8a3.6,3.6,0,0,1-.2-1.1v-.6a3,3,0,0,1,.2-1,2.6,2.6,0,0,1,.5-.9,1.8,1.8,0,0,1,.7-.5l.9-.2h.9l.6.4.4.6a2.4,2.4,0,0,1,.2.8h-.7c-.1-.2-.1-.4-.2-.5a.5.5,0,0,0-.2-.4c-.1-.2-.3-.2-.4-.3h-.6l-.6.2a1,1,0,0,0-.5.4l-.3.6a2.2,2.2,0,0,0-.1.8v.6a2.2,2.2,0,0,0,.1.8,1.1,1.1,0,0,0,.2.6c.2.2.3.4.5.5h1.3l.4-.2a.5.5,0,0,0,.2-.4l.2-.5Z"/><path class="cls-3" d="M48.8,11.1h-.7v2.6h-.7V8h.7v2.5h.6l2-2.5h.9l-2.1,2.7,2.3,3h-.9Z"/><path class="cls-3" d="M55.6,12.2H53.2l-.5,1.5h-.8L54.1,8h.7l2.1,5.7h-.7Zm-2.1-.6h1.9l-1-2.7Z"/><path class="cls-3" d="M61.6,8v5.7h-.7V11.3H58.5a.9.9,0,0,1-.6-.3l-.4-.5c0-.3-.1-.5-.1-.8V8h.8v2.3l.3.4h2.4V8Z"/><path class="cls-3" d="M66.1,12.2H63.7l-.5,1.5h-.8L64.6,8h.6l2.2,5.7h-.8Zm-2.2-.6h2l-1-2.7Z"/><path class="cls-3" d="M71.6,8.6H69.8v5.1H69V8.6H67.2V8h4.4Z"/><path class="cls-3" d="M73.2,10.3h2.2a.9.9,0,0,1,.6.4,1,1,0,0,1,.4.5,1.5,1.5,0,0,1,.1.7,2,2,0,0,1-.1.7l-.4.5a.9.9,0,0,1-.6.3l-.8.2H72.5V8h.7Zm0,.6V13h1.9l.4-.3.2-.3a.8.8,0,0,0,.1-.4c0-.2,0-.3-.1-.4a.5.5,0,0,0-.2-.4l-.4-.2H73.2Z"/><path class="cls-3" d="M79.5,13.7V8h2.6a.8.8,0,0,1,.6.2l.4.5a1.5,1.5,0,0,1,.1.7.8.8,0,0,1-.2.7,1.5,1.5,0,0,1-.6.5l.4.2.3.3a.5.5,0,0,1,.2.4.6.6,0,0,1,.1.4,1.4,1.4,0,0,1-.2.7.9.9,0,0,1-.3.5l-.6.4H79.5Zm.8-3.3h1.9l.2-.3V9.5a.8.8,0,0,0-.3-.7l-.8-.2H80.3Zm0,.6v2H82l.3-.2.3-.3v-.9l-.2-.3-.4-.2H80.3Z"/></svg>