<svg version="1.1" xmlns="http://www.w3.org/2000/svg" x="0" y="0" viewBox="0 0 48 48" xml:space="preserve">
  <style type="text/css">
    .st0{fill:#fff}.st1{fill:#2a13db}
  </style>
  <path class="st0" d="M43.1 35H4.9c-1 0-1.9-.9-1.9-1.9V31h42v2.1c0 1-.9 1.9-1.9 1.9z"/>
  <path class="st1" d="M43.1 36H4.9C3.3 36 2 34.7 2 33.1V30h44v3.1c0 1.6-1.3 2.9-2.9 2.9zM4 32v1.1c0 .5.4.9.9.9H43c.5 0 .9-.4.9-.9V32H4z"/>
  <path class="st0" d="M40.5 31h-33C6.1 31 5 29.9 5 28.5v-19C5 8.1 6.1 7 7.5 7h33C41.9 7 43 8.1 43 9.5v19c0 1.4-1.1 2.5-2.5 2.5z"/>
  <path class="st1" d="M40.5 32h-33C5.6 32 4 30.4 4 28.5v-19C4 7.6 5.6 6 7.5 6h33C42.4 6 44 7.6 44 9.5v19c0 1.9-1.6 3.5-3.5 3.5zM7.5 8C6.7 8 6 8.7 6 9.5v19c0 .8.7 1.5 1.5 1.5h33c.8 0 1.5-.7 1.5-1.5v-19c0-.8-.7-1.5-1.5-1.5h-33z"/>
  <path d="M35.5 42h-11c-1.4 0-2.5-1.1-2.5-2.5v-21c0-1.4 1.1-2.5 2.5-2.5h11c1.4 0 2.5 1.1 2.5 2.5v21c0 1.4-1.1 2.5-2.5 2.5z" fill="#ffd200"/>
  <path class="st1" d="M35.5 43h-11c-1.9 0-3.5-1.6-3.5-3.5v-21c0-1.9 1.6-3.5 3.5-3.5h11c1.9 0 3.5 1.6 3.5 3.5v21c0 1.9-1.6 3.5-3.5 3.5zm-11-26c-.8 0-1.5.7-1.5 1.5v21c0 .8.7 1.5 1.5 1.5h11c.8 0 1.5-.7 1.5-1.5v-21c0-.8-.7-1.5-1.5-1.5h-11z"/>
  <path transform="rotate(-45.001 10.25 11.75)" class="st1" d="M7.8 10.8h4.9v2H7.8z"/>
  <path transform="rotate(-45.001 13.5 14.5)" class="st1" d="M7.1 13.5h12.7v2H7.1z"/>
  <circle class="st1" cx="30" cy="38" r="1"/>
  <circle class="st1" cx="24" cy="11" r="1"/>
</svg>
