<svg xmlns="http://www.w3.org/2000/svg" xmlns:xlink="http://www.w3.org/1999/xlink" width="121" height="121" viewBox="0 0 121 121">
    <defs>
        <path id="a" d="M0 118.33h118.294V0H0z"/>
    </defs>
    <g fill="none" fill-rule="evenodd" transform="translate(1.78 1.78)">
        <path fill="#FFF" d="M54.471 83.62v15.64l9.65 6.81c2.05 1.446 1.027 4.671-1.48 4.671H31.171v-27.12h23.299z"/>
        <path fill="#2A13DB" d="M32.062 109.852H62.64c.906 0 1.422-.606 1.602-1.172.18-.568.109-1.36-.633-1.884l-10.027-7.075V84.51h-21.52v25.34zm30.578 1.78H30.283V82.73h25.078v16.067l9.274 6.545c1.257.888 1.768 2.408 1.303 3.874a3.404 3.404 0 0 1-3.298 2.414z"/>
        <mask id="b" fill="#fff">
            <use xlink:href="#a"/>
        </mask>
        <path fill="#CE1C2C" d="M31.173 94.626H54.47v-5.503H31.173z" mask="url(#b)"/>
        <path fill="#2A13DB" d="M32.062 93.736h21.52v-3.724h-21.52v3.724zm-1.78 1.78h25.08v-7.283h-25.08v7.282zM45.16 109.945a8.028 8.028 0 1 1-16.056 0 8.028 8.028 0 0 1 16.057 0" mask="url(#b)"/>
        <path fill="#FFF" d="M39.498 112.31a3.344 3.344 0 0 1-4.731 0 3.344 3.344 0 0 1 0-4.73 3.344 3.344 0 0 1 4.73 0 3.344 3.344 0 0 1 0 4.73" mask="url(#b)"/>
        <path fill="#2A13DB" d="M37.132 107.49a2.44 2.44 0 0 0-1.736.72 2.46 2.46 0 0 0 0 3.472c.927.928 2.544.927 3.473 0a2.458 2.458 0 0 0-1.737-4.193m0 6.692a4.21 4.21 0 0 1-2.995-1.241 4.24 4.24 0 0 1 0-5.989c.8-.8 1.864-1.241 2.995-1.241s2.195.44 2.995 1.241c.8.8 1.24 1.863 1.24 2.995 0 1.13-.44 2.194-1.24 2.994a4.21 4.21 0 0 1-2.995 1.24M72.258 109.945a8.03 8.03 0 1 1-16.058-.001 8.03 8.03 0 0 1 16.058 0" mask="url(#b)"/>
        <path fill="#FFF" d="M66.595 112.31a3.344 3.344 0 0 1-4.731 0 3.344 3.344 0 0 1 0-4.73 3.344 3.344 0 1 1 4.73 4.73" mask="url(#b)"/>
        <path fill="#2A13DB" d="M64.23 107.49a2.44 2.44 0 0 0-1.738.72 2.46 2.46 0 0 0 0 3.472c.928.928 2.546.928 3.474 0a2.46 2.46 0 0 0 0-3.473 2.44 2.44 0 0 0-1.737-.72m0 6.692a4.21 4.21 0 0 1-2.995-1.241 4.24 4.24 0 0 1 0-5.989c.8-.8 1.864-1.241 2.995-1.241 1.13 0 2.195.44 2.995 1.241a4.24 4.24 0 0 1 0 5.989 4.21 4.21 0 0 1-2.995 1.24" mask="url(#b)"/>
        <path fill="#FFF" d="M91.905 79.571l5.476 14.65 11.767 3.09c2.32.609 2.483 3.84.237 4.68l-29.807 11.142-12.455-33.61 24.782.048z" mask="url(#b)"/>
        <path fill="#2A13DB" d="M68.402 80.415l11.7 31.571 28.972-10.83c.792-.296 1.044-.993 1.017-1.547-.028-.554-.35-1.223-1.168-1.438l-12.214-3.207-5.422-14.504-22.885-.045zm10.651 33.864L65.843 78.63l26.68.053 5.53 14.794 11.321 2.973a3.294 3.294 0 0 1 2.493 3.07 3.292 3.292 0 0 1-2.17 3.304l-30.644 11.455z" mask="url(#b)"/>
        <path fill="#CE1C2C" d="M73.935 98.037l21.823-8.158-1.926-5.154-21.824 8.158z" mask="url(#b)"/>
        <path fill="#2A13DB" d="M73.153 93.405l1.304 3.487 20.157-7.535-1.305-3.487-20.156 7.535zm.26 5.777l-2.55-6.821 23.49-8.78 2.55 6.82-23.49 8.781zM92.402 107.49a8.029 8.029 0 1 1-15.042 5.62 8.03 8.03 0 0 1 15.042-5.62" mask="url(#b)"/>
        <path fill="#FFF" d="M87.925 111.688a3.343 3.343 0 0 1-4.43 1.655 3.343 3.343 0 0 1-1.657-4.43 3.343 3.343 0 0 1 4.43-1.656 3.344 3.344 0 0 1 1.657 4.43" mask="url(#b)"/>
        <path fill="#2A13DB" d="M84.882 107.844a2.467 2.467 0 0 0-2.235 1.438 2.439 2.439 0 0 0-.066 1.878c.23.614.685 1.102 1.281 1.373a2.437 2.437 0 0 0 1.88.067 2.457 2.457 0 0 0-.86-4.756m-.002 6.693a4.24 4.24 0 0 1-3.852-5.994 4.208 4.208 0 0 1 2.37-2.21 4.206 4.206 0 0 1 3.24.114 4.24 4.24 0 0 1 2.097 5.61 4.215 4.215 0 0 1-2.371 2.21 4.25 4.25 0 0 1-1.484.27M117.783 98.001a8.029 8.029 0 1 1-15.04 5.622 8.029 8.029 0 0 1 15.04-5.622" mask="url(#b)"/>
        <path fill="#FFF" d="M113.306 102.2a3.344 3.344 0 0 1-4.43 1.656 3.344 3.344 0 0 1-1.657-4.43 3.344 3.344 0 1 1 6.087 2.774" mask="url(#b)"/>
        <path fill="#2A13DB" d="M110.264 98.356c-.29 0-.581.052-.861.157a2.444 2.444 0 0 0-1.375 1.282 2.439 2.439 0 0 0-.066 1.878c.23.614.685 1.102 1.282 1.373a2.437 2.437 0 0 0 1.878.067 2.44 2.44 0 0 0 1.374-1.283h.001a2.44 2.44 0 0 0 .065-1.877 2.44 2.44 0 0 0-1.281-1.375 2.438 2.438 0 0 0-1.017-.222m-.004 6.693a4.223 4.223 0 0 1-1.754-.382 4.208 4.208 0 0 1-2.21-2.371 4.21 4.21 0 0 1 .113-3.24 4.208 4.208 0 0 1 2.371-2.21 4.202 4.202 0 0 1 3.24.113 4.206 4.206 0 0 1 2.21 2.371 4.203 4.203 0 0 1-.114 3.239 4.208 4.208 0 0 1-2.37 2.21c-.484.181-.986.27-1.486.27" mask="url(#b)"/>
        <path fill="#CE1C2C" d="M97.618 8.052l15.63 14.259v61.54H19.92L4.683 68.616V8.052z" mask="url(#b)"/>
        <path fill="#2A13DB" d="M20.289 82.962h92.07V22.704L97.273 8.942h-91.7v59.305l14.715 14.715zm92.96 1.78H19.92a.887.887 0 0 1-.63-.26L4.056 69.243a.886.886 0 0 1-.261-.629V8.052a.89.89 0 0 1 .89-.89h92.935c.221 0 .435.083.598.232l15.63 14.26c.186.169.29.407.29.657v61.541a.89.89 0 0 1-.889.89z" mask="url(#b)"/>
        <path fill="#FFD200" d="M19.92 83.852h93.328V22.904H19.921z" mask="url(#b)"/>
        <path fill="#2A13DB" d="M20.81 82.962h91.548V23.793H20.81v59.17zm92.438 1.78H19.921a.89.89 0 0 1-.89-.89V22.904a.89.89 0 0 1 .89-.89h93.327a.89.89 0 0 1 .89.89v60.948a.89.89 0 0 1-.89.89z" mask="url(#b)"/>
        <path fill="#CE1C2C" d="M19.92 83.852L4.685 68.615V8.052L19.92 22.904v53.25z" mask="url(#b)"/>
        <path fill="#2A13DB" d="M5.573 68.247l13.458 13.457V23.28L5.573 10.161v58.086zm14.348 16.495a.89.89 0 0 1-.63-.26L4.056 69.243a.886.886 0 0 1-.261-.629V8.052a.89.89 0 0 1 1.51-.637l15.238 14.852a.89.89 0 0 1 .268.637v60.948a.89.89 0 0 1-.89.89z" mask="url(#b)"/>
        <path fill="#2A13DB" d="M19.3 23.54L4.061 8.69l1.243-1.274 15.236 14.852z" mask="url(#b)"/>
        <path fill="#FFF" d="M79.585 77.058h27.175v-21.74H79.585z" mask="url(#b)"/>
        <path fill="#2A13DB" d="M80.475 76.169h25.396V56.207H80.475V76.17zm-1.78 1.779h28.955v-23.52H78.695v23.52z" mask="url(#b)"/>
        <path fill="#2A13DB" d="M82.982 63.34h20.381v-1.779H82.982zM82.982 67.417h20.381v-1.779H82.982zM82.982 71.493h20.381v-1.78H82.982z" mask="url(#b)"/>
        <path fill="#FFD200" d="M69.581.89h18.734" mask="url(#b)"/>
        <path fill="#2A13DB" d="M69.581 1.78h18.734V0H69.58z" mask="url(#b)"/>
        <path fill="#FFD200" d="M.221.89h60.883" mask="url(#b)"/>
        <path fill="#2A13DB" d="M.22 1.78h60.884V0H.221zM0 48.614h37.467v-1.78H0zM13.381 41.922h24.086v-1.78H13.381zM14.05 91.432h9.367v-1.779H14.05z" mask="url(#b)"/>
    </g>
</svg>
