<svg id="Layer_1" data-name="Layer 1" xmlns="http://www.w3.org/2000/svg" xmlns:xlink="http://www.w3.org/1999/xlink" viewBox="0 0 135 40"><defs><style>.cls-1{fill:#a6a6a6;}.cls-2,.cls-9{fill:#fff;}.cls-3{fill:url(#linear-gradient);}.cls-4{fill:url(#linear-gradient-2);}.cls-5{fill:url(#linear-gradient-3);}.cls-6{fill:url(#linear-gradient-4);}.cls-7{opacity:0.2;}.cls-7,.cls-8,.cls-9{isolation:isolate;}.cls-8{opacity:0.12;}.cls-9{opacity:0.25;}</style><linearGradient id="linear-gradient" x1="5.41" y1="-1028.74" x2="4.5" y2="-1027.84" gradientTransform="translate(-78.4 19059.5) scale(18.52)" gradientUnits="userSpaceOnUse"><stop offset="0" stop-color="#00a0ff"/><stop offset="0.01" stop-color="#00a1ff"/><stop offset="0.26" stop-color="#00beff"/><stop offset="0.51" stop-color="#00d2ff"/><stop offset="0.76" stop-color="#00dfff"/><stop offset="1" stop-color="#00e3ff"/></linearGradient><linearGradient id="linear-gradient-2" x1="6.06" y1="-1028.13" x2="4.75" y2="-1028.13" gradientTransform="translate(-78.4 19059.5) scale(18.52)" gradientUnits="userSpaceOnUse"><stop offset="0" stop-color="#ffe000"/><stop offset="0.41" stop-color="#ffbd00"/><stop offset="0.78" stop-color="orange"/><stop offset="1" stop-color="#ff9c00"/></linearGradient><linearGradient id="linear-gradient-3" x1="5.57" y1="-1028.01" x2="4.34" y2="-1026.78" gradientTransform="translate(-78.4 19059.5) scale(18.52)" gradientUnits="userSpaceOnUse"><stop offset="0" stop-color="#ff3a44"/><stop offset="1" stop-color="#c31162"/></linearGradient><linearGradient id="linear-gradient-4" x1="4.63" y1="-1029.2" x2="5.18" y2="-1028.65" gradientTransform="translate(-78.4 19059.5) scale(18.52)" gradientUnits="userSpaceOnUse"><stop offset="0" stop-color="#32a071"/><stop offset="0.07" stop-color="#2da771"/><stop offset="0.48" stop-color="#15cf74"/><stop offset="0.8" stop-color="#06e775"/><stop offset="1" stop-color="#00f076"/></linearGradient></defs><title>google-play-badge</title><path d="M130,40H5a5,5,0,0,1-5-5V5A5,5,0,0,1,5,0H130a5,5,0,0,1,5,5V35A5,5,0,0,1,130,40Z"/><path class="cls-1" d="M130,.8A4.2,4.2,0,0,1,134.2,5V35a4.2,4.2,0,0,1-4.2,4.2H5A4.2,4.2,0,0,1,.8,35V5A4.2,4.2,0,0,1,5,.8H130m0-.8H5A5,5,0,0,0,0,5V35a5,5,0,0,0,5,5H130a5,5,0,0,0,5-5V5A5,5,0,0,0,130,0Z"/><path class="cls-2" d="M68.1,21.8a4.2,4.2,0,0,0-4.3,4.3,4.3,4.3,0,0,0,4.3,4.3,4.2,4.2,0,0,0,4.3-4.3A4.1,4.1,0,0,0,68.1,21.8Zm0,6.8a2.6,2.6,0,0,1,0-5.2A2.4,2.4,0,0,1,70.5,26,2.5,2.5,0,0,1,68.1,28.6Zm-9.3-6.8a4.2,4.2,0,0,0-4.3,4.3,4.3,4.3,0,0,0,4.3,4.3,4.2,4.2,0,0,0,4.3-4.3A4.1,4.1,0,0,0,58.8,21.8Zm0,6.8a2.6,2.6,0,0,1,0-5.2A2.4,2.4,0,0,1,61.2,26,2.5,2.5,0,0,1,58.8,28.6ZM47.7,23.1v1.8H52a3.8,3.8,0,0,1-1,2.3,4.4,4.4,0,0,1-3.3,1.3A4.7,4.7,0,0,1,43,23.7a4.7,4.7,0,0,1,4.7-4.8A5,5,0,0,1,51,20.2l1.3-1.3a6.4,6.4,0,0,0-4.5-1.8,6.7,6.7,0,0,0-6.7,6.6,6.7,6.7,0,0,0,6.7,6.6,5.8,5.8,0,0,0,4.6-1.9A6,6,0,0,0,54,24.2a3.7,3.7,0,0,0-.1-1.1Zm45.4,1.4a3.9,3.9,0,0,0-3.6-2.7,4,4,0,0,0-4,4.3,4.2,4.2,0,0,0,4.2,4.3,4.1,4.1,0,0,0,3.5-1.9l-1.4-1a2.4,2.4,0,0,1-2.1,1.2,2.2,2.2,0,0,1-2.1-1.3L93.3,25l-.2-.5Zm-5.8,1.4a2.4,2.4,0,0,1,2.2-2.5,1.8,1.8,0,0,1,1.6.9l-3.8,1.6ZM82.6,30h1.9V17.5H82.6Zm-3-7.3a3.3,3.3,0,0,0-2.3-1A4.3,4.3,0,0,0,73.2,26a4.1,4.1,0,0,0,4.1,4.2,2.9,2.9,0,0,0,2.2-1h.1v.6a2.3,2.3,0,0,1-4.4,1l-1.6.7A4.1,4.1,0,0,0,77.4,34c2.2,0,4-1.3,4-4.4V22H79.6v.7Zm-2.2,5.9a2.6,2.6,0,0,1,0-5.2A2.4,2.4,0,0,1,79.7,26,2.4,2.4,0,0,1,77.4,28.6Zm24.4-11.1H97.3V30h1.9V25.3h2.6a3.9,3.9,0,1,0,0-7.8Zm.1,6H99.2V19.2h2.7a2.2,2.2,0,0,1,2.2,2.1,2.3,2.3,0,0,1-2.2,2.2Zm11.5-1.8a3.4,3.4,0,0,0-3.3,1.9l1.7.7a1.8,1.8,0,0,1,1.7-.9,1.9,1.9,0,0,1,2,1.6h0a4,4,0,0,0-1.9-.5c-1.8,0-3.6,1-3.6,2.8a2.9,2.9,0,0,0,3.1,2.8,2.8,2.8,0,0,0,2.4-1.2h.1v1h1.8V25.2a3.8,3.8,0,0,0-4-3.5Zm-.2,6.9c-.6,0-1.5-.3-1.5-1.1s1.1-1.3,2-1.3a3.9,3.9,0,0,1,1.7.4A2.3,2.3,0,0,1,113.2,28.6ZM123.7,22l-2.1,5.4h-.1L119.3,22h-2l3.3,7.6-1.9,4.2h1.9L125.7,22Zm-16.8,8h1.9V17.5h-1.9Z"/><path class="cls-3" d="M10.4,7.5A2,2,0,0,0,10,8.9V31a2,2,0,0,0,.5,1.4h.1L23,20.1v-.2Z"/><path class="cls-4" d="M27,24.3l-4.1-4.1v-.3L27,15.8h.1L32,18.7c1.4.8,1.4,2.1,0,2.9Z"/><path class="cls-5" d="M27.1,24.2,22.9,20,10.4,32.5c.5.5,1.2.5,2.1.1l14.6-8.4"/><path class="cls-6" d="M27.1,15.8,12.5,7.5a1.6,1.6,0,0,0-2.1.1L22.9,20l4.2-4.2Z"/><path class="cls-7" d="M27,24.1,12.5,32.3a1.6,1.6,0,0,1-2,0h0a1.6,1.6,0,0,0,2,0Z"/><path class="cls-8" d="M10.4,32.3a2,2,0,0,1-.4-1.4h0a2,2,0,0,0,.5,1.4h-.1ZM32,21.3l-5,2.8h.1L32,21.3A1.4,1.4,0,0,0,33,20C33,20.5,32.6,20.9,32,21.3Z"/><path class="cls-9" d="M12.5,7.6,32,18.7c.6.4,1,.8,1,1.3a1.7,1.7,0,0,0-1-1.4L12.5,7.6C11.1,6.7,10,7.3,10,8.9h0C10,7.5,11.1,6.8,12.5,7.6Z"/><path class="cls-2" d="M45.5,11.1a1.4,1.4,0,0,1-.2.7,2.1,2.1,0,0,1-.4.6l-.6.4-1,.2-.9-.2a1.8,1.8,0,0,1-.7-.5,2,2,0,0,1-.4-.8,3.6,3.6,0,0,1-.2-1.1V9.8a3.6,3.6,0,0,1,.2-1.1,2.2,2.2,0,0,1,.5-.8,1.8,1.8,0,0,1,.7-.5l1-.2h.9a.9.9,0,0,1,.6.4l.4.6a1.9,1.9,0,0,1,.2.8h-.8a4.3,4.3,0,0,0-.1-.5l-.2-.4-.4-.3H42.8a1,1,0,0,0-.5.4,4.3,4.3,0,0,0-.4.7,2.2,2.2,0,0,0-.1.8v.6a2.2,2.2,0,0,0,.1.8c.1.3.1.5.3.6l.5.4.7.2H44l.4-.2.3-.4a.9.9,0,0,0,.1-.5h.7Z"/><path class="cls-2" d="M48,10.4h-.7V13h-.8V7.2h.8V9.7h.6l2-2.5h.9L48.6,10l2.3,2.9H50Z"/><path class="cls-2" d="M54.8,11.4H52.4l-.5,1.5h-.8l2.2-5.7H54l2.2,5.7h-.8Zm-2.2-.6h1.9l-1-2.7Z"/><path class="cls-2" d="M60.7,7.2v5.7H60V10.5h-.6c-.1.1-.2,0-.4,0H57.8l-.6-.3a1,1,0,0,1-.4-.5,1.9,1.9,0,0,1-.3-.8V7.2h.8V9a1.3,1.3,0,0,0,.1.6l.2.4.4.2h1.3l.7-.3V7.2Z"/><path class="cls-2" d="M65.2,11.4H62.8l-.5,1.5h-.8l2.2-5.7h.7l2.2,5.7h-.8Zm-2.1-.6H65L64,8.1Z"/><path class="cls-2" d="M70.7,7.8H68.9v5.1h-.7V7.8H66.4V7.2h4.4v.6Z"/><path class="cls-2" d="M72.4,9.5h2.2l.6.4a1,1,0,0,1,.4.5,1.5,1.5,0,0,1,.1.7,1.7,1.7,0,0,1-.1.7,1,1,0,0,1-.4.5l-.6.3H71.7V7.2h.8V9.5Zm0,.7v2.1h1.9l.4-.2c.1-.1.2-.2.2-.3v-.4a.6.6,0,0,0-.1-.4l-.2-.3-.4-.2H72.4Z"/><path class="cls-2" d="M78.6,12.9V7.2h2.7l.6.3.4.5a1.5,1.5,0,0,1,.1.7,1.4,1.4,0,0,1-.2.7,1.5,1.5,0,0,1-.6.5l.4.2.3.3c.1.1.1.2.2.4a.9.9,0,0,1,.1.5,1.5,1.5,0,0,1-.1.7,1,1,0,0,1-.4.5l-.6.3H78.6Zm.8-3.2h1.5l.3-.2.2-.3c0-.1.1-.2.1-.4a.9.9,0,0,0-.3-.7l-.8-.2H79.3V9.7Zm0,.6v2h1.7l.4-.2c.1-.1.2-.2.2-.3v-.4a.6.6,0,0,0-.1-.4l-.2-.3-.3-.2H79.4Z"/></svg>