<svg xmlns="http://www.w3.org/2000/svg" viewBox="0 0 320 200"><path fill="#17171D" d="M252.764 175.302l5-41.95-19.804-3.2c-7.618-1.231-12.903-8.191-12.034-15.846 1.613-14.186 7.89-48.87 7.953-49.22a.995.995 0 0 1 1.144-.807l30.91 4.995a.996.996 0 0 1 .827 1.146l-4.456 27.575c-1.014 6.278 3.268 12.21 9.546 13.225l5.248.849c2.795.462 5.45-1.448 5.928-4.233l6.066-35.244a.996.996 0 0 1 1.127-.82l27.55 3.95a1.002 1.002 0 0 1 .847 1.138l-16.15 109.063a1.001 1.001 0 0 1-1.13.844l-48.137-6.86a1.001 1.001 0 0 1-.852-1.108l.214-1.79-.707.489c-4.905-7.096-22.075-31.034-38.819-43.862-.4.309-.843.629-1.345.965-.529.356-1.106.717-1.812.88a3.092 3.092 0 0 1-.708.083c-.678 0-1.308-.23-1.767-.661-.19-.18-.32-.408-.43-.652-.396.12-.812.186-1.218.186-.51 0-.998-.078-1.383-.193-1.05-.314-1.857-1.001-2.21-1.886-.025-.062-.029-.123-.046-.185-3.225-3.681-4.663-4.712-9.039-6.227 1.954 8.836 2.773 18.134 2.402 27.574l.131.112c-.043.05-.093.103-.138.154a112.67 112.67 0 0 1-.839 9.867l4.308-2.127c3.98-2.5 7.808-3.241 11.375-2.2 3.692 1.077 6.97 4.152 8.992 8.438.017.036.032.074.045.113l.337 1.016a1 1 0 0 1-.634 1.264c-12.354 4.108-24.702 6.13-37.538 6.13a126.8 126.8 0 0 1-7.29-.214 45.453 45.453 0 0 1-3.74.62c-1.112.13-2.488.283-3.95.414 1.113 1.75 1.938 3.824 2.393 6.112a.97.97 0 0 1 .016.119l.081 1.068a1 1 0 0 1-.92 1.073c-3.182.244-6.334.366-9.462.366-12.04 0-23.734-1.813-35.5-5.49a.995.995 0 0 1-.33-.177l-.33-.266a.987.987 0 0 1-.188-.2c-4.557-6.43-6.555-14.061-7.43-19.66l-.41.472c-2.017-1.765-5.933-2.02-8.758-1.356-4.32 1.01-8.115 3.256-12.133 5.634-1.784 1.056-3.622 2.135-5.507 3.1l.224 16.954a1 1 0 0 1-.98 1.014l-48.615.907h-.019a1 1 0 0 1-.998-.958l-1.904-45.73h-20.06c-7.716 0-14.045-6.027-14.408-13.722-.672-14.262-.008-49.503 0-49.858a1 1 0 0 1 1-.98h31.31a1 1 0 0 1 1 1v27.932c0 6.36 5.174 11.534 11.534 11.534h5.316c2.825 0 5.147-2.3 5.176-5.124l.366-35.76a1 1 0 0 1 .982-.99l27.827-.495a1 1 0 0 1 1.018.986l1.202 91.053c1.531-.821 3.043-1.71 4.518-2.583 3.97-2.351 8.076-4.781 12.695-5.862 2.885-.674 6.681-.567 9.371.984-4.342-32.218-.299-61.557 12.044-87.223-3.878-1.604-16.902-8.145-16.354-23.466.328-9.165 3.333-15.52 8.93-18.887 8.14-4.897 19.201-1.871 23.912.416 3.691 1.79 9.378 6.32 12.384 9.783 5.31-5.986 14.968-9.248 23.742-7.946 2.01.298 3.686.547 5.45 1.758 3.175 2.179 5.082 6.389 5.231 11.55.154 5.305-1.014 8.45-3.382 12.269.271.192.513.38.693.547 2.43 2.249 3.101 6.617 3.287 10.484.23.108.405.203.518.267 2.285 1.303 3.673 3.655 3.533 5.993-.103 1.73-.974 3.148-2.255 4.228 1.634 3.129 4.276 5.732 7.277 6.132l-.002.017a14.508 14.508 0 0 1 3.3-1.402c1.5-.417 4.17-.883 5.181.717.417.658.585 1.499.5 2.498-.312 3.654-2.369 5.506-6.115 5.506l-.177-.001c-.338-.006-1.686-.072-2.937-.651-.432.272-.852.475-1.16.622l-.149.07c-2.118 1.019-5.626 1.577-9.58 1.577a44.83 44.83 0 0 1-7.423-.633c-.309.607-.848 1.175-1.48 1.677 3.7 5.417 6.771 11.36 9.214 17.675a113.475 113.475 0 0 1 18.442 12.254 11.6 11.6 0 0 1 2.23-.734c.6-.13 1.505-.28 2.436-.073 1.227.27 2.548.69 3.037 1.744.993 2.147 1.004 4.456.574 5.795-.153.478-.478.978-.967 1.512 16.124 12.474 32.491 34.84 38.215 43.023zm-42.188-42.362c2.463-1.65 2.944-2.497 3.036-2.784.31-.967.243-2.77-.485-4.343-.043-.067-.3-.334-1.653-.632-.418-.092-.92-.068-1.584.075a9.598 9.598 0 0 0-3.3 1.403c-.8.537-1.516 1.557-1.893 2.558.06-.003.12-.004.178-.004 1.38 0 2.753.815 3.346 2.076.158.338.24.756.327 1.2.058.298.167.852.263 1 .082.07.352.106.615.045.375-.087.758-.331 1.15-.594zm-5.632-.612c.467.137 1.146.14 1.525.002a1.284 1.284 0 0 0-.059-.191c-.299-.636-1.117-1.035-1.805-.89a2.336 2.336 0 0 0-.522.49c.16.255.475.473.861.589zm-12.423-8.68c5.081 1.677 6.964 2.708 9.995 5.978.333-1.798 1.54-3.604 2.842-4.536a111.201 111.201 0 0 0-15.513-10.464 98.32 98.32 0 0 1 2.676 9.022zm.961 29.362c.536-15.101-2.019-29.81-7.43-42.76l-.095.05c-1.982-3.708-8.18-4.297-12.886-3.676-1.94.256-5.863 2.399-7.486 3.872-2.462 2.234-5.655 7.055-6.738 11.257-1.087 4.227-1.462 12.28-1.616 16.324.35.115.7.244 1.055.41.93.435 2.086.978 2.888 1.972.717.888 1.038 2.097.88 3.315-.159 1.218-.778 2.304-1.699 2.979-.767.566-1.746.824-2.75.777.582 3.063 2.956 7.305 5.253 9.133 4.31 3.428 9.926 5.088 15.403 4.556 5.327-.518 11.707-4.462 15.221-8.21zm6.39 10.286l-6.045 2.985a1 1 0 0 1-1.432-1.042c.457-3.112.773-6.223.965-9.321-3.876 3.477-9.67 6.782-14.906 7.292-.737.072-1.476.107-2.215.107-5.265 0-10.494-1.801-14.626-5.09-2.614-2.08-5.67-7.197-6.095-11.113-.643 1.422-1.965 2.54-3.533 2.799-1.266.209-2.559-.161-3.572-.91-.497 1.712-1.653 3.199-3.426 3.648-.317.08-.64.119-.965.119-1.002 0-2.01-.377-2.873-1.093-1.269-1.052-1.997-2.66-1.9-4.19.144-2.312 1.826-4.391 4.16-5.31a53.827 53.827 0 0 1-5.414-25.472l2 .07a51.813 51.813 0 0 0 5.732 25.562 1.004 1.004 0 0 1-.695 1.44c-2.047.404-3.676 2.053-3.788 3.835-.056.892.408 1.884 1.182 2.526.644.535 1.398.745 2.07.573 1.627-.412 2.386-2.542 2.157-4.282a1 1 0 0 1 1.951-.411c.36 1.232 1.79 2.122 3.055 1.922 1.268-.21 2.332-1.52 2.277-2.802a1 1 0 1 1 1.831-.596c.332.498.91.85 1.584.97.672.12 1.337-.016 1.821-.37.483-.354.81-.947.898-1.627.09-.678-.077-1.335-.452-1.801-.512-.633-1.36-1.032-2.18-1.417-.748-.35-1.525-.537-2.347-.734-.884-.213-1.798-.433-2.73-.87a.993.993 0 0 1-.435-.395c-.179-.3-1.757-2.963-2.173-4.064-2.314-6.124-3.45-11.983-3.802-19.591l1.998-.092c.34 7.385 1.44 13.06 3.675 18.976.27.714 1.316 2.55 1.86 3.476.567.236 1.157.388 1.768.538.22-5.413.64-12.325 1.66-16.286 1.218-4.738 4.686-9.842 7.33-12.24 1.682-1.527 6.021-4.037 8.567-4.374 3.785-.5 8.14-.266 11.328 1.358A82.516 82.516 0 0 0 177.91 95.2c-.85.46-1.666.786-2.176.913-1.18.292-2.55.577-4.44.577-1.009 0-2.166-.081-3.522-.285l.298-1.98c3.534.534 5.56.149 7.182-.254 1.204-.3 2.911-1.35 3.682-2.16-1.983-.445-3.903-1.037-5.649-1.793l.794-1.836c7.533 3.258 18.807 3.376 23.12 1.3l.16-.075c.102-.05.221-.112.335-.17a3.52 3.52 0 0 1-.63-2.12c.011-.591.261-1.14.66-1.64-2.92-1.013-5.409-3.57-7.042-6.594-1.564.813-3.41 1.269-5.189 1.324-.124.003-.26.006-.407.006-1.948 0-5.775-.42-7.4-3.516a8.744 8.744 0 0 1-.295-.622c-3.272-.985-4.767-.762-7.424.69.06.406.094.812.07 1.22-.264 4.44-5.233 6.986-9.775 7.126-.133.004-.278.006-.435.006-2.09 0-6.196-.447-7.934-3.76-1.925-3.67-.893-7.388 2.63-9.47a11.752 11.752 0 0 1 11.733-.307 7.703 7.703 0 0 1 3.093 3.247c2.601-1.37 4.447-1.72 7.475-.981-.21-2.403.947-4.602 3.321-6.005 3.273-1.937 6.304-1.793 8.365-1.278-.214-3.262-.828-6.65-2.602-8.292-.465-.43-1.71-1.196-2.339-1.44-10.014-3.868-26.493.248-31.306 1.602l-.54-1.925a97.647 97.647 0 0 1 8.078-1.887c-.944-5.712-2.89-11-5.139-13.91-2.53-3.278-8.668-8.265-12.387-10.07-5.084-2.465-15.138-4.632-22.008-.501-4.98 2.997-7.66 8.8-7.962 17.246-.587 16.4 15.87 21.843 16.035 21.896a.998.998 0 0 1 .593 1.394c-12.646 25.757-16.762 55.328-12.233 87.889.753 5.41 2.605 13.203 7.152 19.678l.073.059c11.95 3.713 23.828 5.468 36.086 5.328a9.013 9.013 0 0 0-1.455-3.553l1.643-1.141a11.026 11.026 0 0 1 1.822 4.656c.612-.017 1.224-.04 1.84-.065a8.675 8.675 0 0 0-2.712-5.095l1.345-1.478a10.67 10.67 0 0 1 3.363 6.466c.367-.023.734-.038 1.102-.064v-.006c-.82-4.06-2.903-7.327-5.717-8.968-2.706-1.58-6.065-1.726-9.986-.431-.519.167-5.082 1.612-7.214 1.45l.153-1.993c1.471.107 5.15-.942 6.441-1.36 4.482-1.476 8.393-1.274 11.613.606 1.046.609 1.991 1.42 2.841 2.364 1.9-.144 3.751-.348 5.166-.512 2.586-.301 6.058-1.065 8.845-1.945.702-.221 1.37-.443 2.017-.666 1.038-.357 2.024-.716 3.01-1.074 1.6-.581 3.252-1.182 5.112-1.77l.601 1.91c-1.819.573-3.45 1.167-5.03 1.74-.996.362-1.993.725-3.042 1.085-.282.097-.587.193-.877.29 10.202.05 20.087-1.191 29.91-3.761a9.032 9.032 0 0 0-2.272-3.094l1.318-1.503a11.012 11.012 0 0 1 2.895 4.074c.59-.164 1.18-.332 1.768-.507a8.662 8.662 0 0 0-3.863-4.285l.947-1.762a10.676 10.676 0 0 1 4.828 5.459c.351-.11.702-.214 1.054-.328l-.003-.006c-1.779-3.74-4.589-6.406-7.717-7.317-3.006-.876-6.3-.203-9.793 1.999-.029.018-.06.035-.09.05zM179.045 32.87c-8.337-1.24-17.445 1.873-22.268 7.556 2.232 3.269 4.057 8.397 4.992 14.044 7.075-1.184 16.01-1.818 22.52.698.17.065.362.155.564.255 2.205-3.55 3.243-6.338 3.102-11.175-.13-4.517-1.72-8.147-4.363-9.96-1.383-.95-2.71-1.146-4.547-1.418zm23.988 51.909c-2.408.77-3.96 2.042-3.97 2.58-.01.466.12.824.411 1.125.71.735 2.186.949 2.87.96 2.815.055 4.041-1.022 4.267-3.675.047-.555-.019-.977-.197-1.258-.068-.092-.375-.186-.9-.186-.574 0-1.408.11-2.48.454zM39.63 184.759l46.642-.871-.198-15.031c-4.559 2.05-9.17 3.116-13.552 3.116-1.18 0-2.343-.076-3.484-.23-6.535-.877-12.313-4.418-15.454-9.47-2.035-3.273-2.928-7.063-3.479-10-.547-2.911-1.192-7.282-.48-11.6.995-6.047 4.547-11.798 10.001-16.192 2.7-2.175 5.065-3.264 7.443-3.43 2.767-.2 6.221 1.29 7.135 4.415.55 1.88-.322 4.33-1.945 5.463-1.395.976-3.089.873-4.648-.281l1.19-1.607c.86.635 1.638.719 2.314.249.923-.645 1.48-2.2 1.17-3.262-.599-2.044-3.049-3.128-5.078-2.98-1.95.135-3.96 1.085-6.327 2.99-5.07 4.085-8.366 9.398-9.282 14.96-.509 3.09-.363 6.455.473 10.907.518 2.764 1.352 6.32 3.211 9.31 2.83 4.553 8.072 7.747 14.023 8.546 5.251.707 11.04-.36 16.74-3.083l-1.202-91.035-25.85.46-.356 34.787c-.04 3.918-3.259 7.105-7.176 7.105h-5.316c-7.463 0-13.534-6.072-13.534-13.534V77.529H3.281c-.102 5.816-.589 35.886.017 48.744.312 6.627 5.763 11.817 12.41 11.817h21.02a1 1 0 0 1 .998.958l1.903 45.71zm96.724-142.373c-3.43-1.553-7.947-.569-10.507 2.29-2.522 2.817-3.1 7.366-1.373 10.816 1.727 3.454 5.541 5.752 9.482 5.672l.03 2-.182.001c-4.63 0-9.082-2.706-11.119-6.778-2.112-4.221-1.425-9.585 1.672-13.045 3.168-3.54 8.56-4.706 12.822-2.778 2.428 1.099 4.567 3.169 6.185 5.984 1.452 2.527 2.36 5.412 3.087 7.731l-1.908.599c-.889-2.83-1.668-5.168-2.913-7.334-.982-1.708-2.693-3.989-5.276-5.158zm164.28 142.26L316.49 77.562l-25.592-3.671-5.9 34.286c-.666 3.86-4.35 6.49-8.219 5.867l-5.248-.848c-7.366-1.191-12.39-8.152-11.2-15.52l4.296-26.586-28.954-4.68c-1.029 5.726-6.306 35.333-7.759 48.124-.749 6.59 3.804 12.585 10.365 13.645l20.75 3.354a1 1 0 0 1 .834 1.105l-5.414 45.428 46.183 6.582zm-60.596-1.218c2.184-2.185 4.837-3.967 6.924-4.653l.625 1.9c-1.78.585-4.19 2.221-6.135 4.167l-1.414-1.414zm6.093-7.215l-.772 1.844c-2.185-.914-7.637-1.382-7.692-1.387l.167-1.992c.237.02 5.823.498 8.297 1.535zm2.345 7.066c.107-.478.209-.93.287-1.334l1.964.38c-.082.423-.188.892-.3 1.392-.32 1.422-.682 3.035-.682 4.417h-2c0-1.605.388-3.331.73-4.855z" fill-rule="evenodd"/></svg>
